<mxfile host="Electron" modified="2023-11-06T18:22:38.448Z" agent="Mozilla/5.0 (Windows NT 10.0; Win64; x64) AppleWebKit/537.36 (KHTML, like Gecko) draw.io/22.0.2 Chrome/114.0.5735.289 Electron/25.8.4 Safari/537.36" etag="eRKH3BEHIMcVOEbscv9G" version="22.0.2" type="device">
  <diagram name="Page-1" id="rKrEWHwmTi4IIKNgkNCD">
    <mxGraphModel dx="792" dy="1187" grid="1" gridSize="10" guides="1" tooltips="1" connect="1" arrows="1" fold="1" page="1" pageScale="1" pageWidth="827" pageHeight="1169" math="0" shadow="0">
      <root>
        <mxCell id="0" />
        <mxCell id="1" parent="0" />
        <mxCell id="zvW39wMWMaMD_ryrmslw-1" value="" style="triangle;whiteSpace=wrap;html=1;rotation=-90;fillColor=#d5e8d4;strokeColor=#82b366;" vertex="1" parent="1">
          <mxGeometry x="250" y="131.25" width="247.5" height="330" as="geometry" />
        </mxCell>
        <mxCell id="zvW39wMWMaMD_ryrmslw-2" value="&lt;b style=&quot;border-color: var(--border-color);&quot;&gt;&lt;font style=&quot;border-color: var(--border-color); font-size: 20px;&quot;&gt;Schutziele&lt;/font&gt;&lt;/b&gt;" style="text;html=1;align=center;verticalAlign=middle;resizable=0;points=[];autosize=1;strokeColor=none;fillColor=none;" vertex="1" parent="1">
          <mxGeometry x="313.75" y="310" width="120" height="40" as="geometry" />
        </mxCell>
        <mxCell id="zvW39wMWMaMD_ryrmslw-3" value="&lt;b&gt;&lt;font style=&quot;font-size: 16px;&quot;&gt;Vertaulichkeit&lt;/font&gt;&lt;/b&gt;" style="ellipse;whiteSpace=wrap;html=1;aspect=fixed;fillColor=#dae8fc;strokeColor=#6c8ebf;" vertex="1" parent="1">
          <mxGeometry x="173.75" y="330" width="140" height="140" as="geometry" />
        </mxCell>
        <mxCell id="zvW39wMWMaMD_ryrmslw-5" value="&lt;b&gt;&lt;font style=&quot;font-size: 16px;&quot;&gt;Integrität&lt;/font&gt;&lt;/b&gt;" style="ellipse;whiteSpace=wrap;html=1;aspect=fixed;fillColor=#fff2cc;strokeColor=#d6b656;" vertex="1" parent="1">
          <mxGeometry x="433.75" y="330" width="140" height="140" as="geometry" />
        </mxCell>
        <mxCell id="zvW39wMWMaMD_ryrmslw-6" value="&lt;b&gt;&lt;font style=&quot;font-size: 16px;&quot;&gt;Verfügbarkeit&lt;/font&gt;&lt;/b&gt;" style="ellipse;whiteSpace=wrap;html=1;aspect=fixed;fillColor=#e1d5e7;strokeColor=#9673a6;" vertex="1" parent="1">
          <mxGeometry x="303.75" y="131.25" width="140" height="140" as="geometry" />
        </mxCell>
      </root>
    </mxGraphModel>
  </diagram>
</mxfile>
